# xmcd CD database file
#
# Track frame offsets:
#	150
#	12690
#	24922
#	37650
#	48352
#	60197
#	75087
#	86254
#	97499
#	107464
#	120344
#	132027
#	143502
#	154359
#	164239
#	174592
#	185939
#	199074
#	220277
#	238049
#	249632
#	264197
#	277711
#	286926
#	300503
#	311238
#
# Disc length: 4342 seconds
#
# Revision: 0
# Processed by: cddbd v1.5.1PL0 Copyright (c) Steve Scherf et al.
# Submitted via: CDex 1.50beta9
#
DISCID=5a10f41a
DTITLE=Marty Robbins - Marty Robbins-The Essential - disc 1
DYEAR=1900
DGENRE=Country
TTITLE0=19511114 Tomorrow You'll Be Gone
TTITLE1=19520603 I'll Go On Alone
TTITLE2=19521126 I Couldn't Keep From Crying
TTITLE3=19540523 Pain And Misery
TTITLE4=19541207 That's All Right
TTITLE5=19551103 Tennessee Toddy
TTITLE6=19551103 I Can't Quit
TTITLE7=19551103 Singing The Blues
TTITLE8=19560904 Knee Deep In The Blues
TTITLE9=19560313 Mister Teardrop
TTITLE10=19570722 The Story Of My Life
TTITLE11=19570125 A White Sport Coat (And A Pink Carnation)
TTITLE12=19570722 She Was Only Seventeen (He Was One Year More)
TTITLE13=19580226 Just Married
TTITLE14=19580226 Ain't I The Lucky One
TTITLE15=19580306 Kaw Liga
TTITLE16=19581011 The Hanging Tree
TTITLE17=19590407 El Paso
TTITLE18=19590407 Big Iron
TTITLE19=19600308 Song Of The Bandit
TTITLE20=19590407 Cool Water
TTITLE21=19610606 A Little Sentimental
TTITLE22=19620217 September In The Rain
TTITLE23=19620217 All The Way
TTITLE24=19610531 Unchained Melody
TTITLE25=19600712 Don't Worry
EXTD=
EXTT0=
EXTT1=
EXTT2=
EXTT3=
EXTT4=
EXTT5=
EXTT6=
EXTT7=
EXTT8=
EXTT9=
EXTT10=
EXTT11=
EXTT12=
EXTT13=
EXTT14=
EXTT15=
EXTT16=
EXTT17=
EXTT18=
EXTT19=
EXTT20=
EXTT21=
EXTT22=
EXTT23=
EXTT24=
EXTT25=
PLAYORDER=
